<?xml version="1.0" encoding="UTF-8" standalone="no"?>
<!DOCTYPE svg PUBLIC "-//W3C//DTD SVG 1.1//EN"
 "http://www.w3.org/Graphics/SVG/1.1/DTD/svg11.dtd">
<!-- Generated by graphviz version 2.36.0 (20140111.2315)
 -->
<!-- Title: color_showcase Pages: 1 -->
<svg width="426pt" height="260pt"
 viewBox="0.00 0.00 426.00 260.00" xmlns="http://www.w3.org/2000/svg" xmlns:xlink="http://www.w3.org/1999/xlink">
<g id="graph0" class="graph" transform="scale(1 1) rotate(0) translate(4 256)">
<title>color_showcase</title>
<polygon fill="#eeeeee" stroke="none" points="-4,4 -4,-256 422,-256 422,4 -4,4"/>
<!-- Red -->
<g id="node1" class="node"><title>Red</title>
<path fill="none" stroke="#a50f15" stroke-width="1.5" d="M42,-252C42,-252 12,-252 12,-252 6,-252 0,-246 0,-240 0,-240 0,-228 0,-228 0,-222 6,-216 12,-216 12,-216 42,-216 42,-216 48,-216 54,-222 54,-228 54,-228 54,-240 54,-240 54,-246 48,-252 42,-252"/>
<text text-anchor="middle" x="27" y="-231.5" font-family="sans" font-size="10.00" fill="#a50f15">Red</text>
</g>
<!-- Red2 -->
<g id="node7" class="node"><title>Red2</title>
<path fill="#a50f15" stroke="#a50f15" stroke-width="1.5" d="M42,-180C42,-180 12,-180 12,-180 6,-180 0,-174 0,-168 0,-168 0,-156 0,-156 0,-150 6,-144 12,-144 12,-144 42,-144 42,-144 48,-144 54,-150 54,-156 54,-156 54,-168 54,-168 54,-174 48,-180 42,-180"/>
<text text-anchor="start" x="16" y="-160.5" font-family="sans" font-weight="bold" font-size="10.00">Red</text>
</g>
<!-- Red&#45;&gt;Red2 -->
<g id="edge1" class="edge"><title>Red&#45;&gt;Red2</title>
<path fill="none" stroke="#a50f15" stroke-width="1.5" d="M27,-215.697C27,-207.983 27,-198.712 27,-190.112"/>
<polygon fill="#a50f15" stroke="#a50f15" stroke-width="1.5" points="30.5001,-190.104 27,-180.104 23.5001,-190.104 30.5001,-190.104"/>
</g>
<!-- Orange -->
<g id="node2" class="node"><title>Orange</title>
<path fill="none" stroke="#d94801" stroke-width="1.5" d="M116,-252C116,-252 86,-252 86,-252 80,-252 74,-246 74,-240 74,-240 74,-228 74,-228 74,-222 80,-216 86,-216 86,-216 116,-216 116,-216 122,-216 128,-222 128,-228 128,-228 128,-240 128,-240 128,-246 122,-252 116,-252"/>
<text text-anchor="middle" x="101" y="-231.5" font-family="sans" font-size="10.00" fill="#d94801">Orange</text>
</g>
<!-- Orange2 -->
<g id="node8" class="node"><title>Orange2</title>
<path fill="#d94801" stroke="#d94801" stroke-width="1.5" d="M117.25,-180C117.25,-180 84.75,-180 84.75,-180 78.75,-180 72.75,-174 72.75,-168 72.75,-168 72.75,-156 72.75,-156 72.75,-150 78.75,-144 84.75,-144 84.75,-144 117.25,-144 117.25,-144 123.25,-144 129.25,-150 129.25,-156 129.25,-156 129.25,-168 129.25,-168 129.25,-174 123.25,-180 117.25,-180"/>
<text text-anchor="start" x="80.5" y="-160.5" font-family="sans" font-weight="bold" font-size="10.00">Orange</text>
</g>
<!-- Orange&#45;&gt;Orange2 -->
<g id="edge2" class="edge"><title>Orange&#45;&gt;Orange2</title>
<path fill="none" stroke="#d94801" stroke-width="1.5" d="M101,-215.697C101,-207.983 101,-198.712 101,-190.112"/>
<polygon fill="#d94801" stroke="#d94801" stroke-width="1.5" points="104.5,-190.104 101,-180.104 97.5001,-190.104 104.5,-190.104"/>
</g>
<!-- Yellow -->
<g id="node3" class="node"><title>Yellow</title>
<path fill="none" stroke="#fe9929" stroke-width="1.5" d="M190,-252C190,-252 160,-252 160,-252 154,-252 148,-246 148,-240 148,-240 148,-228 148,-228 148,-222 154,-216 160,-216 160,-216 190,-216 190,-216 196,-216 202,-222 202,-228 202,-228 202,-240 202,-240 202,-246 196,-252 190,-252"/>
<text text-anchor="middle" x="175" y="-231.5" font-family="sans" font-size="10.00" fill="#fe9929">Yellow</text>
</g>
<!-- Yellow2 -->
<g id="node9" class="node"><title>Yellow2</title>
<path fill="#fe9929" stroke="#fe9929" stroke-width="1.5" d="M190,-180C190,-180 160,-180 160,-180 154,-180 148,-174 148,-168 148,-168 148,-156 148,-156 148,-150 154,-144 160,-144 160,-144 190,-144 190,-144 196,-144 202,-150 202,-156 202,-156 202,-168 202,-168 202,-174 196,-180 190,-180"/>
<text text-anchor="start" x="157" y="-160.5" font-family="sans" font-weight="bold" font-size="10.00">Yellow</text>
</g>
<!-- Yellow&#45;&gt;Yellow2 -->
<g id="edge3" class="edge"><title>Yellow&#45;&gt;Yellow2</title>
<path fill="none" stroke="#fe9929" stroke-width="1.5" d="M175,-215.697C175,-207.983 175,-198.712 175,-190.112"/>
<polygon fill="#fe9929" stroke="#fe9929" stroke-width="1.5" points="178.5,-190.104 175,-180.104 171.5,-190.104 178.5,-190.104"/>
</g>
<!-- Green -->
<g id="node4" class="node"><title>Green</title>
<path fill="none" stroke="#006d2c" stroke-width="1.5" d="M262,-252C262,-252 232,-252 232,-252 226,-252 220,-246 220,-240 220,-240 220,-228 220,-228 220,-222 226,-216 232,-216 232,-216 262,-216 262,-216 268,-216 274,-222 274,-228 274,-228 274,-240 274,-240 274,-246 268,-252 262,-252"/>
<text text-anchor="middle" x="247" y="-231.5" font-family="sans" font-size="10.00" fill="#006d2c">Green</text>
</g>
<!-- Green2 -->
<g id="node10" class="node"><title>Green2</title>
<path fill="#006d2c" stroke="#006d2c" stroke-width="1.5" d="M262,-180C262,-180 232,-180 232,-180 226,-180 220,-174 220,-168 220,-168 220,-156 220,-156 220,-150 226,-144 232,-144 232,-144 262,-144 262,-144 268,-144 274,-150 274,-156 274,-156 274,-168 274,-168 274,-174 268,-180 262,-180"/>
<text text-anchor="start" x="230" y="-160.5" font-family="sans" font-weight="bold" font-size="10.00">Green</text>
</g>
<!-- Green&#45;&gt;Green2 -->
<g id="edge4" class="edge"><title>Green&#45;&gt;Green2</title>
<path fill="none" stroke="#006d2c" stroke-width="1.5" d="M247,-215.697C247,-207.983 247,-198.712 247,-190.112"/>
<polygon fill="#006d2c" stroke="#006d2c" stroke-width="1.5" points="250.5,-190.104 247,-180.104 243.5,-190.104 250.5,-190.104"/>
</g>
<!-- Blue -->
<g id="node5" class="node"><title>Blue</title>
<path fill="none" stroke="#08519c" stroke-width="1.5" d="M334,-252C334,-252 304,-252 304,-252 298,-252 292,-246 292,-240 292,-240 292,-228 292,-228 292,-222 298,-216 304,-216 304,-216 334,-216 334,-216 340,-216 346,-222 346,-228 346,-228 346,-240 346,-240 346,-246 340,-252 334,-252"/>
<text text-anchor="middle" x="319" y="-231.5" font-family="sans" font-size="10.00" fill="#08519c">Blue</text>
</g>
<!-- Blue2 -->
<g id="node11" class="node"><title>Blue2</title>
<path fill="#08519c" stroke="#08519c" stroke-width="1.5" d="M334,-180C334,-180 304,-180 304,-180 298,-180 292,-174 292,-168 292,-168 292,-156 292,-156 292,-150 298,-144 304,-144 304,-144 334,-144 334,-144 340,-144 346,-150 346,-156 346,-156 346,-168 346,-168 346,-174 340,-180 334,-180"/>
<text text-anchor="start" x="306.5" y="-160.5" font-family="sans" font-weight="bold" font-size="10.00">Blue</text>
</g>
<!-- Blue&#45;&gt;Blue2 -->
<g id="edge5" class="edge"><title>Blue&#45;&gt;Blue2</title>
<path fill="none" stroke="#08519c" stroke-width="1.5" d="M319,-215.697C319,-207.983 319,-198.712 319,-190.112"/>
<polygon fill="#08519c" stroke="#08519c" stroke-width="1.5" points="322.5,-190.104 319,-180.104 315.5,-190.104 322.5,-190.104"/>
</g>
<!-- Violet -->
<g id="node6" class="node"><title>Violet</title>
<path fill="none" stroke="#54278f" stroke-width="1.5" d="M406,-252C406,-252 376,-252 376,-252 370,-252 364,-246 364,-240 364,-240 364,-228 364,-228 364,-222 370,-216 376,-216 376,-216 406,-216 406,-216 412,-216 418,-222 418,-228 418,-228 418,-240 418,-240 418,-246 412,-252 406,-252"/>
<text text-anchor="middle" x="391" y="-231.5" font-family="sans" font-size="10.00" fill="#54278f">Violet</text>
</g>
<!-- Violet2 -->
<g id="node12" class="node"><title>Violet2</title>
<path fill="#54278f" stroke="#54278f" stroke-width="1.5" d="M406,-180C406,-180 376,-180 376,-180 370,-180 364,-174 364,-168 364,-168 364,-156 364,-156 364,-150 370,-144 376,-144 376,-144 406,-144 406,-144 412,-144 418,-150 418,-156 418,-156 418,-168 418,-168 418,-174 412,-180 406,-180"/>
<text text-anchor="start" x="375" y="-160.5" font-family="sans" font-weight="bold" font-size="10.00">Violet</text>
</g>
<!-- Violet&#45;&gt;Violet2 -->
<g id="edge6" class="edge"><title>Violet&#45;&gt;Violet2</title>
<path fill="none" stroke="#54278f" stroke-width="1.5" d="M391,-215.697C391,-207.983 391,-198.712 391,-190.112"/>
<polygon fill="#54278f" stroke="#54278f" stroke-width="1.5" points="394.5,-190.104 391,-180.104 387.5,-190.104 394.5,-190.104"/>
</g>
<!-- Red3 -->
<g id="node13" class="node"><title>Red3</title>
<path fill="#fcbba1" stroke="#a50f15" stroke-width="1.5" d="M42,-108C42,-108 12,-108 12,-108 6,-108 0,-102 0,-96 0,-96 0,-84 0,-84 0,-78 6,-72 12,-72 12,-72 42,-72 42,-72 48,-72 54,-78 54,-84 54,-84 54,-96 54,-96 54,-102 48,-108 42,-108"/>
<text text-anchor="middle" x="27" y="-87.5" font-family="sans" font-size="10.00">Red</text>
</g>
<!-- Red2&#45;&gt;Red3 -->
<g id="edge7" class="edge"><title>Red2&#45;&gt;Red3</title>
<path fill="none" stroke="#a50f15" stroke-width="1.5" d="M27,-143.697C27,-135.983 27,-126.712 27,-118.112"/>
<polygon fill="#fcbba1" stroke="#a50f15" stroke-width="1.5" points="30.5001,-118.104 27,-108.104 23.5001,-118.104 30.5001,-118.104"/>
</g>
<!-- Orange3 -->
<g id="node14" class="node"><title>Orange3</title>
<path fill="#fdd0a2" stroke="#d94801" stroke-width="1.5" d="M116,-108C116,-108 86,-108 86,-108 80,-108 74,-102 74,-96 74,-96 74,-84 74,-84 74,-78 80,-72 86,-72 86,-72 116,-72 116,-72 122,-72 128,-78 128,-84 128,-84 128,-96 128,-96 128,-102 122,-108 116,-108"/>
<text text-anchor="middle" x="101" y="-87.5" font-family="sans" font-size="10.00">Orange</text>
</g>
<!-- Orange2&#45;&gt;Orange3 -->
<g id="edge8" class="edge"><title>Orange2&#45;&gt;Orange3</title>
<path fill="none" stroke="#d94801" stroke-width="1.5" d="M101,-143.697C101,-135.983 101,-126.712 101,-118.112"/>
<polygon fill="#fdd0a2" stroke="#d94801" stroke-width="1.5" points="104.5,-118.104 101,-108.104 97.5001,-118.104 104.5,-118.104"/>
</g>
<!-- Yellow3 -->
<g id="node15" class="node"><title>Yellow3</title>
<path fill="#fee391" stroke="#fe9929" stroke-width="1.5" d="M190,-108C190,-108 160,-108 160,-108 154,-108 148,-102 148,-96 148,-96 148,-84 148,-84 148,-78 154,-72 160,-72 160,-72 190,-72 190,-72 196,-72 202,-78 202,-84 202,-84 202,-96 202,-96 202,-102 196,-108 190,-108"/>
<text text-anchor="middle" x="175" y="-87.5" font-family="sans" font-size="10.00">Yellow</text>
</g>
<!-- Yellow2&#45;&gt;Yellow3 -->
<g id="edge9" class="edge"><title>Yellow2&#45;&gt;Yellow3</title>
<path fill="none" stroke="#fe9929" stroke-width="1.5" d="M175,-143.697C175,-135.983 175,-126.712 175,-118.112"/>
<polygon fill="#fee391" stroke="#fe9929" stroke-width="1.5" points="178.5,-118.104 175,-108.104 171.5,-118.104 178.5,-118.104"/>
</g>
<!-- Green3 -->
<g id="node16" class="node"><title>Green3</title>
<path fill="#c7e9c0" stroke="#006d2c" stroke-width="1.5" d="M262,-108C262,-108 232,-108 232,-108 226,-108 220,-102 220,-96 220,-96 220,-84 220,-84 220,-78 226,-72 232,-72 232,-72 262,-72 262,-72 268,-72 274,-78 274,-84 274,-84 274,-96 274,-96 274,-102 268,-108 262,-108"/>
<text text-anchor="middle" x="247" y="-87.5" font-family="sans" font-size="10.00">Green</text>
</g>
<!-- Green2&#45;&gt;Green3 -->
<g id="edge10" class="edge"><title>Green2&#45;&gt;Green3</title>
<path fill="none" stroke="#006d2c" stroke-width="1.5" d="M247,-143.697C247,-135.983 247,-126.712 247,-118.112"/>
<polygon fill="#c7e9c0" stroke="#006d2c" stroke-width="1.5" points="250.5,-118.104 247,-108.104 243.5,-118.104 250.5,-118.104"/>
</g>
<!-- Blue3 -->
<g id="node17" class="node"><title>Blue3</title>
<path fill="#c6dbef" stroke="#08519c" stroke-width="1.5" d="M334,-108C334,-108 304,-108 304,-108 298,-108 292,-102 292,-96 292,-96 292,-84 292,-84 292,-78 298,-72 304,-72 304,-72 334,-72 334,-72 340,-72 346,-78 346,-84 346,-84 346,-96 346,-96 346,-102 340,-108 334,-108"/>
<text text-anchor="middle" x="319" y="-87.5" font-family="sans" font-size="10.00">Blue</text>
</g>
<!-- Blue2&#45;&gt;Blue3 -->
<g id="edge11" class="edge"><title>Blue2&#45;&gt;Blue3</title>
<path fill="none" stroke="#08519c" stroke-width="1.5" d="M319,-143.697C319,-135.983 319,-126.712 319,-118.112"/>
<polygon fill="#c6dbef" stroke="#08519c" stroke-width="1.5" points="322.5,-118.104 319,-108.104 315.5,-118.104 322.5,-118.104"/>
</g>
<!-- Violet3 -->
<g id="node18" class="node"><title>Violet3</title>
<path fill="#dadaeb" stroke="#54278f" stroke-width="1.5" d="M406,-108C406,-108 376,-108 376,-108 370,-108 364,-102 364,-96 364,-96 364,-84 364,-84 364,-78 370,-72 376,-72 376,-72 406,-72 406,-72 412,-72 418,-78 418,-84 418,-84 418,-96 418,-96 418,-102 412,-108 406,-108"/>
<text text-anchor="middle" x="391" y="-87.5" font-family="sans" font-size="10.00">Violet</text>
</g>
<!-- Violet2&#45;&gt;Violet3 -->
<g id="edge12" class="edge"><title>Violet2&#45;&gt;Violet3</title>
<path fill="none" stroke="#54278f" stroke-width="1.5" d="M391,-143.697C391,-135.983 391,-126.712 391,-118.112"/>
<polygon fill="#dadaeb" stroke="#54278f" stroke-width="1.5" points="394.5,-118.104 391,-108.104 387.5,-118.104 394.5,-118.104"/>
</g>
<!-- Red4 -->
<g id="node19" class="node"><title>Red4</title>
<defs>
<linearGradient id="l_0" gradientUnits="userSpaceOnUse" x1="46.0919" y1="-5.27208" x2="7.90812" y2="-30.7279" >
<stop offset="0" style="stop-color:#fb6a4a;stop-opacity:1.;"/>
<stop offset="1" style="stop-color:#fcbba1;stop-opacity:1.;"/>
</linearGradient>
</defs>
<path fill="url(#l_0)" stroke="#a50f15" stroke-width="1.5" d="M42,-36C42,-36 12,-36 12,-36 6,-36 0,-30 0,-24 0,-24 0,-12 0,-12 0,-6 6,-0 12,-0 12,-0 42,-0 42,-0 48,-0 54,-6 54,-12 54,-12 54,-24 54,-24 54,-30 48,-36 42,-36"/>
<text text-anchor="start" x="16" y="-16.5" font-family="sans" font-weight="bold" font-size="10.00">Red</text>
</g>
<!-- Red3&#45;&gt;Red4 -->
<g id="edge13" class="edge"><title>Red3&#45;&gt;Red4</title>
<path fill="none" stroke="#333333" stroke-width="1.5" d="M27,-71.6966C27,-63.9827 27,-54.7125 27,-46.1124"/>
<polygon fill="#333333" stroke="#333333" stroke-width="1.5" points="30.5001,-46.1043 27,-36.1043 23.5001,-46.1044 30.5001,-46.1043"/>
</g>
<!-- Orange4 -->
<g id="node20" class="node"><title>Orange4</title>
<defs>
<linearGradient id="l_1" gradientUnits="userSpaceOnUse" x1="120.976" y1="-5.27208" x2="81.0242" y2="-30.7279" >
<stop offset="0" style="stop-color:#fd8d3c;stop-opacity:1.;"/>
<stop offset="1" style="stop-color:#fdd0a2;stop-opacity:1.;"/>
</linearGradient>
</defs>
<path fill="url(#l_1)" stroke="#d94801" stroke-width="1.5" d="M117.25,-36C117.25,-36 84.75,-36 84.75,-36 78.75,-36 72.75,-30 72.75,-24 72.75,-24 72.75,-12 72.75,-12 72.75,-6 78.75,-0 84.75,-0 84.75,-0 117.25,-0 117.25,-0 123.25,-0 129.25,-6 129.25,-12 129.25,-12 129.25,-24 129.25,-24 129.25,-30 123.25,-36 117.25,-36"/>
<text text-anchor="start" x="80.5" y="-16.5" font-family="sans" font-weight="bold" font-size="10.00">Orange</text>
</g>
<!-- Orange3&#45;&gt;Orange4 -->
<g id="edge14" class="edge"><title>Orange3&#45;&gt;Orange4</title>
<path fill="none" stroke="#333333" stroke-width="1.5" d="M101,-71.6966C101,-63.9827 101,-54.7125 101,-46.1124"/>
<polygon fill="#333333" stroke="#333333" stroke-width="1.5" points="104.5,-46.1043 101,-36.1043 97.5001,-46.1044 104.5,-46.1043"/>
</g>
<!-- Yellow4 -->
<g id="node21" class="node"><title>Yellow4</title>
<defs>
<linearGradient id="l_2" gradientUnits="userSpaceOnUse" x1="194.092" y1="-5.27208" x2="155.908" y2="-30.7279" >
<stop offset="0" style="stop-color:#fec44f;stop-opacity:1.;"/>
<stop offset="1" style="stop-color:#fee391;stop-opacity:1.;"/>
</linearGradient>
</defs>
<path fill="url(#l_2)" stroke="#fe9929" stroke-width="1.5" d="M190,-36C190,-36 160,-36 160,-36 154,-36 148,-30 148,-24 148,-24 148,-12 148,-12 148,-6 154,-0 160,-0 160,-0 190,-0 190,-0 196,-0 202,-6 202,-12 202,-12 202,-24 202,-24 202,-30 196,-36 190,-36"/>
<text text-anchor="start" x="157" y="-16.5" font-family="sans" font-weight="bold" font-size="10.00">Yellow</text>
</g>
<!-- Yellow3&#45;&gt;Yellow4 -->
<g id="edge15" class="edge"><title>Yellow3&#45;&gt;Yellow4</title>
<path fill="none" stroke="#333333" stroke-width="1.5" d="M175,-71.6966C175,-63.9827 175,-54.7125 175,-46.1124"/>
<polygon fill="#333333" stroke="#333333" stroke-width="1.5" points="178.5,-46.1043 175,-36.1043 171.5,-46.1044 178.5,-46.1043"/>
</g>
<!-- Green4 -->
<g id="node22" class="node"><title>Green4</title>
<defs>
<linearGradient id="l_3" gradientUnits="userSpaceOnUse" x1="266.092" y1="-5.27208" x2="227.908" y2="-30.7279" >
<stop offset="0" style="stop-color:#74c476;stop-opacity:1.;"/>
<stop offset="1" style="stop-color:#c7e9c0;stop-opacity:1.;"/>
</linearGradient>
</defs>
<path fill="url(#l_3)" stroke="#006d2c" stroke-width="1.5" d="M262,-36C262,-36 232,-36 232,-36 226,-36 220,-30 220,-24 220,-24 220,-12 220,-12 220,-6 226,-0 232,-0 232,-0 262,-0 262,-0 268,-0 274,-6 274,-12 274,-12 274,-24 274,-24 274,-30 268,-36 262,-36"/>
<text text-anchor="start" x="230" y="-16.5" font-family="sans" font-weight="bold" font-size="10.00">Green</text>
</g>
<!-- Green3&#45;&gt;Green4 -->
<g id="edge16" class="edge"><title>Green3&#45;&gt;Green4</title>
<path fill="none" stroke="#333333" stroke-width="1.5" d="M247,-71.6966C247,-63.9827 247,-54.7125 247,-46.1124"/>
<polygon fill="#333333" stroke="#333333" stroke-width="1.5" points="250.5,-46.1043 247,-36.1043 243.5,-46.1044 250.5,-46.1043"/>
</g>
<!-- Blue4 -->
<g id="node23" class="node"><title>Blue4</title>
<defs>
<linearGradient id="l_4" gradientUnits="userSpaceOnUse" x1="338.092" y1="-5.27208" x2="299.908" y2="-30.7279" >
<stop offset="0" style="stop-color:#6baed6;stop-opacity:1.;"/>
<stop offset="1" style="stop-color:#c6dbef;stop-opacity:1.;"/>
</linearGradient>
</defs>
<path fill="url(#l_4)" stroke="#08519c" stroke-width="1.5" d="M334,-36C334,-36 304,-36 304,-36 298,-36 292,-30 292,-24 292,-24 292,-12 292,-12 292,-6 298,-0 304,-0 304,-0 334,-0 334,-0 340,-0 346,-6 346,-12 346,-12 346,-24 346,-24 346,-30 340,-36 334,-36"/>
<text text-anchor="start" x="306.5" y="-16.5" font-family="sans" font-weight="bold" font-size="10.00">Blue</text>
</g>
<!-- Blue3&#45;&gt;Blue4 -->
<g id="edge17" class="edge"><title>Blue3&#45;&gt;Blue4</title>
<path fill="none" stroke="#333333" stroke-width="1.5" d="M319,-71.6966C319,-63.9827 319,-54.7125 319,-46.1124"/>
<polygon fill="#333333" stroke="#333333" stroke-width="1.5" points="322.5,-46.1043 319,-36.1043 315.5,-46.1044 322.5,-46.1043"/>
</g>
<!-- Violet4 -->
<g id="node24" class="node"><title>Violet4</title>
<defs>
<linearGradient id="l_5" gradientUnits="userSpaceOnUse" x1="410.092" y1="-5.27208" x2="371.908" y2="-30.7279" >
<stop offset="0" style="stop-color:#9e9ac8;stop-opacity:1.;"/>
<stop offset="1" style="stop-color:#dadaeb;stop-opacity:1.;"/>
</linearGradient>
</defs>
<path fill="url(#l_5)" stroke="#54278f" stroke-width="1.5" d="M406,-36C406,-36 376,-36 376,-36 370,-36 364,-30 364,-24 364,-24 364,-12 364,-12 364,-6 370,-0 376,-0 376,-0 406,-0 406,-0 412,-0 418,-6 418,-12 418,-12 418,-24 418,-24 418,-30 412,-36 406,-36"/>
<text text-anchor="start" x="375" y="-16.5" font-family="sans" font-weight="bold" font-size="10.00">Violet</text>
</g>
<!-- Violet3&#45;&gt;Violet4 -->
<g id="edge18" class="edge"><title>Violet3&#45;&gt;Violet4</title>
<path fill="none" stroke="#333333" stroke-width="1.5" d="M391,-71.6966C391,-63.9827 391,-54.7125 391,-46.1124"/>
<polygon fill="#333333" stroke="#333333" stroke-width="1.5" points="394.5,-46.1043 391,-36.1043 387.5,-46.1044 394.5,-46.1043"/>
</g>
</g>
</svg>
